<svg xmlns="http://www.w3.org/2000/svg" width="18.163" height="32" viewBox="0 0 18.163 32"><path d="M11.719,32H6.594a1.554,1.554,0,0,1-1.552-1.552V18.889H2.052A1.554,1.554,0,0,1,.5,17.337V12.384a1.554,1.554,0,0,1,1.552-1.552h2.99V8.351A8.445,8.445,0,0,1,7.275,2.3,8.043,8.043,0,0,1,13.205,0l3.908.006a1.554,1.554,0,0,1,1.55,1.552v4.6a1.554,1.554,0,0,1-1.552,1.552H14.48c-.8,0-1.007.161-1.051.21-.072.082-.158.313-.158.951v1.959h3.642a1.578,1.578,0,0,1,.768.2,1.558,1.558,0,0,1,.8,1.358l0,4.953a1.554,1.554,0,0,1-1.552,1.552H13.271V30.448A1.554,1.554,0,0,1,11.719,32Zm-4.8-1.876H11.4V18.049a1.038,1.038,0,0,1,1.036-1.036H16.6l0-4.305H12.431A1.037,1.037,0,0,1,11.4,11.671v-2.8a3.2,3.2,0,0,1,.628-2.193,3.18,3.18,0,0,1,2.456-.845h2.308V1.881L13.2,1.876c-3.877,0-6.285,2.481-6.285,6.476v3.32a1.038,1.038,0,0,1-1.036,1.036H2.376v4.305H5.882a1.037,1.037,0,0,1,1.036,1.036ZM17.11,1.882h0Zm0,0" transform="translate(-0.5 0)"/></svg>