<svg xmlns="http://www.w3.org/2000/svg" width="34" height="33.292" viewBox="0 0 34 33.292"><g transform="translate(0 -5.329)"><g transform="translate(0 5.329)"><path d="M17,5.329a17.078,17.078,0,0,0-5.37,33.263c.85.157,1.16-.37,1.16-.822,0-.406-.015-1.479-.023-2.9C8.037,35.9,7.038,32.578,7.038,32.578a4.507,4.507,0,0,0-1.887-2.5c-1.545-1.058.115-1.037.115-1.037a3.57,3.57,0,0,1,2.6,1.76,3.613,3.613,0,0,0,4.949,1.417,3.643,3.643,0,0,1,1.08-2.282c-3.774-.431-7.744-1.9-7.744-8.434A6.616,6.616,0,0,1,7.9,16.923a6.15,6.15,0,0,1,.166-4.516s1.428-.459,4.675,1.749a16.046,16.046,0,0,1,8.513,0c3.245-2.208,4.671-1.749,4.671-1.749a6.159,6.159,0,0,1,.17,4.516,6.6,6.6,0,0,1,1.747,4.581c0,6.556-3.974,8-7.761,8.421a4.083,4.083,0,0,1,1.154,3.16c0,2.282-.021,4.123-.021,4.681,0,.457.306.988,1.169.82A17.08,17.08,0,0,0,17,5.329Z" transform="translate(0 -5.329)"/></g></g></svg>