<svg xmlns="http://www.w3.org/2000/svg" width="32.23" height="32.23" viewBox="0 0 32.23 32.23"><defs><style>.a{fill:#000808;}</style></defs><path class="a" d="M23.505,0H8.725A8.737,8.737,0,0,0,0,8.725v14.78A8.737,8.737,0,0,0,8.725,32.23h14.78a8.737,8.737,0,0,0,8.725-8.725V8.725A8.737,8.737,0,0,0,23.505,0Zm6.836,23.505a6.843,6.843,0,0,1-6.836,6.836H8.725a6.843,6.843,0,0,1-6.836-6.836V8.725A6.843,6.843,0,0,1,8.725,1.888h14.78a6.843,6.843,0,0,1,6.836,6.836Z"/><path class="a" d="M124.813,116a8.813,8.813,0,1,0,8.813,8.813A8.823,8.823,0,0,0,124.813,116Zm0,15.737a6.924,6.924,0,1,1,6.924-6.924A6.933,6.933,0,0,1,124.813,131.737Z" transform="translate(-108.698 -108.698)"/><path class="a" d="M360.506,66.3a2.606,2.606,0,1,0,2.606,2.606A2.611,2.611,0,0,0,360.506,66.3Zm0,3.317a.718.718,0,1,1,.718-.718A.717.717,0,0,1,360.506,69.617Z" transform="translate(-335.37 -62.126)"/></svg>