<svg xmlns="http://www.w3.org/2000/svg" width="35.255" height="25.063" viewBox="0 0 35.255 25.063"><defs><style>.a{fill:#8b8b8b;}</style></defs><g transform="translate(6.14 12.083)"><path class="a" d="M25.964,22.385a.563.563,0,0,1-.389-.155l-6.541-6.136a.568.568,0,1,1,.779-.828L26.354,21.4a.568.568,0,0,1-.39.982Z" transform="translate(-3.561 -15.111)"/><path class="a" d="M5.97,22.385a.568.568,0,0,1-.39-.982l6.543-6.136a.568.568,0,1,1,.779.828L6.359,22.231A.563.563,0,0,1,5.97,22.385Z" transform="translate(-5.402 -15.111)"/></g><path class="a" d="M32.413,29.545H2.842A2.845,2.845,0,0,1,0,26.7V7.324A2.845,2.845,0,0,1,2.842,4.482H32.413a2.845,2.845,0,0,1,2.842,2.842V26.7A2.845,2.845,0,0,1,32.413,29.545ZM2.842,5.619A1.707,1.707,0,0,0,1.137,7.324V26.7a1.707,1.707,0,0,0,1.705,1.705H32.413A1.707,1.707,0,0,0,34.118,26.7V7.324a1.707,1.707,0,0,0-1.705-1.705Z" transform="translate(0 -4.482)"/><path class="a" d="M17.537,19.761a3.179,3.179,0,0,1-2.087-.753L.853,6.275A.568.568,0,1,1,1.6,5.418L16.2,18.15a2.127,2.127,0,0,0,2.679,0L33.455,5.438A.569.569,0,1,1,34.2,6.3L19.624,19.007A3.176,3.176,0,0,1,17.537,19.761Z" transform="translate(0.09 -4.373)"/></svg>