<svg xmlns="http://www.w3.org/2000/svg" width="29.146" height="29.146" viewBox="0 0 29.146 29.146"><defs><style>.a{fill:#8b8b8b;}</style></defs><path class="a" d="M29.127,23.988a2.236,2.236,0,0,0-1.109-1.657l-7.19-4.14a2.256,2.256,0,0,0-2.717.359l-1.416,1.416a1.038,1.038,0,0,1-1.387.077,40.936,40.936,0,0,1-3.267-2.939A40.948,40.948,0,0,1,9.1,13.839a1.038,1.038,0,0,1,.077-1.387L10.6,11.036a2.256,2.256,0,0,0,.359-2.717l-4.14-7.19A2.253,2.253,0,0,0,3.27.66L1.136,2.794C-.354,4.283-.378,7.008,1.068,10.466A33.882,33.882,0,0,0,8.374,20.772a33.881,33.881,0,0,0,10.306,7.306,12.018,12.018,0,0,0,4.513,1.067,4.3,4.3,0,0,0,3.159-1.135l2.134-2.134a2.237,2.237,0,0,0,.64-1.888ZM20.356,19.01l7.19,4.14a1.308,1.308,0,0,1,.4,1.911L18.39,19.607l.388-.388a1.311,1.311,0,0,1,1.578-.209ZM5.034.956A1.3,1.3,0,0,1,6,1.6l4.14,7.19a1.31,1.31,0,0,1-.209,1.578l-.356.356L4.087,1.2A1.292,1.292,0,0,1,4.859.944a1.333,1.333,0,0,1,.175.012ZM25.685,27.343c-1.183,1.183-3.6,1.134-6.64-.136a32.928,32.928,0,0,1-10-7.1,32.928,32.928,0,0,1-7.1-10C.669,7.065.62,4.645,1.8,3.462L3.387,1.877l5.492,9.539-.368.368a1.981,1.981,0,0,0-.145,2.646,41.892,41.892,0,0,0,3.007,3.343,41.914,41.914,0,0,0,3.343,3.007,1.981,1.981,0,0,0,2.646-.146L17.7,20.3l9.569,5.461-1.583,1.583Z" transform="translate(-0.001 0)"/></svg>