<svg xmlns="http://www.w3.org/2000/svg" width="26.078" height="37.096" viewBox="0 0 26.078 37.096"><defs><style>.a{fill:#8b8b8b;}</style></defs><g transform="translate(-76)"><g transform="translate(76)"><g transform="translate(0)"><path class="a" d="M89.039,0a13.041,13.041,0,0,0-11.09,19.9L88.3,36.581a1.088,1.088,0,0,0,.92.514h.007a1.088,1.088,0,0,0,.927-.529l10.083-16.842A13.045,13.045,0,0,0,89.039,0Zm9.337,18.6L89.205,33.915,79.8,18.747a10.87,10.87,0,1,1,18.58-.145Z" transform="translate(-76)"/></g></g><g transform="translate(82.519 6.519)"><g transform="translate(0)"><path class="a" d="M172.519,90a6.519,6.519,0,1,0,6.519,6.519A6.529,6.529,0,0,0,172.519,90Zm0,10.88a4.361,4.361,0,1,1,4.354-4.361A4.361,4.361,0,0,1,172.519,100.88Z" transform="translate(-166 -90)"/></g></g></g></svg>