<svg xmlns="http://www.w3.org/2000/svg" width="36.502" height="30.363" viewBox="0 0 36.502 30.363"><defs><style>.a{fill:#000808;}</style></defs><path class="a" d="M35.921,38.023a14.454,14.454,0,0,1-2.517.849,7.847,7.847,0,0,0,2.071-3.3h0a.412.412,0,0,0-.6-.479h0a14.523,14.523,0,0,1-3.848,1.59.981.981,0,0,1-.24.03,1.02,1.02,0,0,1-.674-.257,7.869,7.869,0,0,0-5.207-1.965,8.414,8.414,0,0,0-2.493.385,7.624,7.624,0,0,0-5.138,5.493,8.4,8.4,0,0,0-.187,2.9.282.282,0,0,1-.071.221.292.292,0,0,1-.217.1h-.028A20.635,20.635,0,0,1,2.589,36.008h0a.411.411,0,0,0-.674.053h0a7.878,7.878,0,0,0,1.28,9.566A7.052,7.052,0,0,1,1.4,44.931h0a.411.411,0,0,0-.611.355h0a7.879,7.879,0,0,0,4.6,7.259l-.168,0a7.08,7.08,0,0,1-1.326-.126h0a.412.412,0,0,0-.469.53h0a7.887,7.887,0,0,0,6.23,5.364,14.521,14.521,0,0,1-8.133,2.47H.609a.6.6,0,0,0-.589.454.623.623,0,0,0,.3.689,21.6,21.6,0,0,0,10.853,2.926,21.9,21.9,0,0,0,9.275-1.968A20.481,20.481,0,0,0,27.232,57.8a22.3,22.3,0,0,0,4.155-6.959A21.985,21.985,0,0,0,32.8,43.224V43.1a1.339,1.339,0,0,1,.5-1.042,15.554,15.554,0,0,0,3.129-3.434h0a.411.411,0,0,0-.509-.6Z" transform="translate(0 -34.491)"/></svg>